<svg width="33" height="28" viewBox="0 0 33 28" fill="none" xmlns="http://www.w3.org/2000/svg">
<path d="M19.2632 16.0881H13.7406C13.6799 16.0881 13.6248 16.1265 13.6028 16.1814L8.41082 27.2544C8.37224 27.3531 8.44389 27.4573 8.54861 27.4518H24.4441C24.5488 27.4518 24.615 27.3421 24.5819 27.2489L19.39 16.1759C19.3734 16.1265 19.3183 16.0881 19.2632 16.0881Z" fill="#57D6FF"/>
<path d="M8.48244 24.2983L12.9854 14.7664C12.9964 14.739 13.002 14.7061 12.9909 14.6732L6.47621 0.770211C6.43212 0.605679 6.18961 0.627617 6.18961 0.803118L8.20686 24.2434C8.19583 24.397 8.42181 24.4464 8.48244 24.2983Z" fill="#57D6FF"/>
<path d="M0.407926 9.26549L4.65738 0.0626718C4.74556 -0.057985 4.92745 0.00782761 4.92194 0.155906L7.15965 25.6255C7.15414 25.779 6.93919 25.8229 6.87856 25.6803L0.159903 11.3221C-0.121189 10.6421 -0.0274918 9.86329 0.407926 9.26549Z" fill="#57D6FF"/>
<path d="M24.7969 24.2434L26.8141 0.803081C26.8141 0.633064 26.5716 0.605642 26.5275 0.770174L20.0128 14.6731C20.0018 14.706 20.0073 14.7389 20.0183 14.7664L24.5213 24.2982C24.5819 24.4463 24.8079 24.397 24.7969 24.2434Z" fill="#57D6FF"/>
<path d="M32.8383 11.3222L26.1197 25.6803C26.059 25.8284 25.8441 25.7845 25.8386 25.6255L28.0763 0.155922C28.0708 0.00784303 28.2527 -0.0524852 28.3408 0.0626872L32.5958 9.26551C33.0312 9.86331 33.1194 10.6421 32.8383 11.3222Z" fill="#57D6FF"/>
</svg>
